%TF.GenerationSoftware,KiCad,Pcbnew,9.0.7*%
%TF.CreationDate,2026-04-13T14:58:29-04:00*%
%TF.ProjectId,nixie-tube-clock,6e697869-652d-4747-9562-652d636c6f63,rev?*%
%TF.SameCoordinates,Original*%
%TF.FileFunction,Soldermask,Bot*%
%TF.FilePolarity,Negative*%
%FSLAX46Y46*%
G04 Gerber Fmt 4.6, Leading zero omitted, Abs format (unit mm)*
G04 Created by KiCad (PCBNEW 9.0.7) date 2026-04-13 14:58:29*
%MOMM*%
%LPD*%
G01*
G04 APERTURE LIST*
%ADD10C,3.200000*%
%ADD11C,0.650000*%
%ADD12O,1.050000X2.100000*%
%ADD13O,1.000000X2.000000*%
%ADD14C,1.346200*%
%ADD15C,1.600000*%
%ADD16R,1.700000X1.700000*%
%ADD17C,1.700000*%
%ADD18C,1.498600*%
%ADD19C,1.803400*%
G04 APERTURE END LIST*
D10*
%TO.C,H1*%
X119000000Y-109000000D03*
%TD*%
%TO.C,H2*%
X268000000Y-93000000D03*
%TD*%
%TO.C,H3*%
X268000000Y-47000000D03*
%TD*%
%TO.C,H4*%
X119000000Y-47000000D03*
%TD*%
D11*
%TO.C,J5*%
X194329800Y-48136000D03*
X188549800Y-48136000D03*
D12*
X195759800Y-48636000D03*
D13*
X195759800Y-44456000D03*
X187119800Y-44456000D03*
D12*
X187119800Y-48636000D03*
%TD*%
D14*
%TO.C,N1*%
X125506480Y-102575360D03*
X135691880Y-102575360D03*
X136743440Y-99804220D03*
X136385300Y-96865440D03*
X134703820Y-94427040D03*
X132080000Y-93050360D03*
X129118360Y-93050360D03*
X126494540Y-94427040D03*
X124813060Y-96865440D03*
X124454920Y-99804220D03*
X130599180Y-105247440D03*
X133474460Y-104538780D03*
X127723900Y-104538780D03*
%TD*%
%TO.C,N2*%
X148871940Y-102575360D03*
X159057340Y-102575360D03*
X160108900Y-99804220D03*
X159750760Y-96865440D03*
X158069280Y-94427040D03*
X155445460Y-93050360D03*
X152483820Y-93050360D03*
X149860000Y-94427040D03*
X148178520Y-96865440D03*
X147820380Y-99804220D03*
X153964640Y-105247440D03*
X156839920Y-104538780D03*
X151089360Y-104538780D03*
%TD*%
%TO.C,N3*%
X173675040Y-102593140D03*
X183860440Y-102593140D03*
X184912000Y-99822000D03*
X184553860Y-96883220D03*
X182872380Y-94444820D03*
X180248560Y-93068140D03*
X177286920Y-93068140D03*
X174663100Y-94444820D03*
X172981620Y-96883220D03*
X172623480Y-99822000D03*
X178767740Y-105265220D03*
X181643020Y-104556560D03*
X175892460Y-104556560D03*
%TD*%
%TO.C,N4*%
X199583040Y-102611712D03*
X209768440Y-102611712D03*
X210820000Y-99840572D03*
X210461860Y-96901792D03*
X208780380Y-94463392D03*
X206156560Y-93086712D03*
X203194920Y-93086712D03*
X200571100Y-94463392D03*
X198889620Y-96901792D03*
X198531480Y-99840572D03*
X204675740Y-105283792D03*
X207551020Y-104575132D03*
X201800460Y-104575132D03*
%TD*%
%TO.C,N5*%
X225087180Y-102629994D03*
X235272580Y-102629994D03*
X236324140Y-99858854D03*
X235966000Y-96920074D03*
X234284520Y-94481674D03*
X231660700Y-93104994D03*
X228699060Y-93104994D03*
X226075240Y-94481674D03*
X224393760Y-96920074D03*
X224035620Y-99858854D03*
X230179880Y-105302074D03*
X233055160Y-104593414D03*
X227304600Y-104593414D03*
%TD*%
%TO.C,N6*%
X250388120Y-102648130D03*
X260573520Y-102648130D03*
X261625080Y-99876990D03*
X261266940Y-96938210D03*
X259585460Y-94499810D03*
X256961640Y-93123130D03*
X254000000Y-93123130D03*
X251376180Y-94499810D03*
X249694700Y-96938210D03*
X249336560Y-99876990D03*
X255480820Y-105320210D03*
X258356100Y-104611550D03*
X252605540Y-104611550D03*
%TD*%
D15*
%TO.C,R37*%
X140580000Y-109750000D03*
X130420000Y-109750000D03*
%TD*%
%TO.C,R38*%
X164910000Y-109500000D03*
X154750000Y-109500000D03*
%TD*%
%TO.C,R39*%
X189410000Y-109500000D03*
X179250000Y-109500000D03*
%TD*%
%TO.C,R40*%
X214660000Y-109500000D03*
X204500000Y-109500000D03*
%TD*%
%TO.C,R41*%
X240410000Y-109750000D03*
X230250000Y-109750000D03*
%TD*%
%TO.C,R42*%
X265660000Y-109750000D03*
X255500000Y-109750000D03*
%TD*%
D16*
%TO.C,SW1*%
X137975000Y-44400000D03*
D17*
X135435000Y-44400000D03*
%TD*%
D18*
%TO.C,MIN*%
X222255001Y-45409701D03*
X217755000Y-45409701D03*
D19*
X223510001Y-47900000D03*
X216500000Y-47900000D03*
%TD*%
D18*
%TO.C,HOUR*%
X213200001Y-45400000D03*
X208700000Y-45400000D03*
D19*
X214455001Y-47890299D03*
X207445000Y-47890299D03*
%TD*%
D18*
%TO.C,SEC*%
X231100001Y-45400000D03*
X226600000Y-45400000D03*
D19*
X232355001Y-47890299D03*
X225345000Y-47890299D03*
%TD*%
M02*
