M48
; DRILL file {KiCad 9.0.7} date 2026-04-13T14:58:30-0400
; FORMAT={-:-/ absolute / inch / decimal}
; #@! TF.CreationDate,2026-04-13T14:58:30-04:00
; #@! TF.GenerationSoftware,Kicad,Pcbnew,9.0.7
; #@! TF.FileFunction,Plated,1,2,PTH
FMAT,2
INCH
; #@! TA.AperFunction,Plated,PTH,ViaDrill
T1C0.0118
; #@! TA.AperFunction,Plated,PTH,ViaDrill
T2C0.0120
; #@! TA.AperFunction,Plated,PTH,ViaDrill
T3C0.0160
; #@! TA.AperFunction,Plated,PTH,ComponentDrill
T4C0.0236
; #@! TA.AperFunction,Plated,PTH,ComponentDrill
T5C0.0315
; #@! TA.AperFunction,Plated,PTH,ComponentDrill
T6C0.0330
; #@! TA.AperFunction,Plated,PTH,ComponentDrill
T7C0.0390
; #@! TA.AperFunction,Plated,PTH,ComponentDrill
T8C0.0394
; #@! TA.AperFunction,Plated,PTH,ComponentDrill
T9C0.0510
%
G90
G05
T1
X4.9705Y-3.0118
X4.9783Y-1.7912
X4.9783Y-1.8602
X5.0689Y-2.9724
X5.0787Y-2.126
X5.1161Y-2.4031
X5.1969Y-1.7244
X5.2343Y-1.8701
X5.2933Y-2.0472
X5.2953Y-3.8386
X5.313Y-1.8506
X5.3898Y-2.8661
X5.3937Y-2.7874
X5.4311Y-2.1063
X5.4409Y-2.0354
X5.5098Y-1.9837
X5.5197Y-1.9193
X5.521Y-4.032
X5.5689Y-1.8406
X5.6988Y-2.955
X5.6988Y-3.4488
X5.714Y-4.034
X5.7756Y-2.6102
X5.8858Y-2.7244
X5.8957Y-3.8976
X5.9823Y-2.1161
X6.0197Y-2.8583
X6.251Y-3.869
X6.4469Y-3.8976
X6.643Y-3.986
X6.8799Y-3.9764
X6.9252Y-2.5433
X7.0591Y-2.7362
X7.0591Y-2.7992
X7.1535Y-2.7362
X7.1535Y-2.7992
X7.1929Y-1.748
X7.2047Y-3.878
X7.311Y-1.689
X7.3228Y-2.4094
X7.3599Y-2.6504
X7.41Y-3.873
X7.4457Y-2.5984
X7.7Y-4.007
X7.8819Y-2.9961
X7.8839Y-3.9764
X7.9055Y-2.8465
X7.9173Y-2.626
X7.9528Y-2.7717
X8.0315Y-2.4409
X8.0354Y-1.9646
X8.0354Y-2.0394
X8.0945Y-2.0433
X8.0984Y-1.9685
X8.1024Y-2.752
X8.189Y-2.811
X8.2283Y-3.878
X8.3661Y-2.0472
X8.3661Y-2.1339
X8.465Y-3.868
X8.5709Y-2.0433
X8.5748Y-1.9488
X8.674Y-3.995
X8.8858Y-2.0394
X8.8976Y-3.9862
X8.9291Y-1.9646
X9.2323Y-3.878
X9.4291Y-3.8681
X9.6949Y-3.9961
X9.8917Y-3.9764
X10.5512Y-2.0748
T2
X4.7205Y-2.1772
X4.8189Y-2.2598
X4.8583Y-3.2953
X4.8898Y-1.8976
X4.9685Y-2.8071
X5.0276Y-2.6378
X5.0354Y-1.8858
X5.0394Y-3.1614
X5.0866Y-3.8386
X5.1299Y-2.5472
X5.1378Y-2.2756
X5.1654Y-3.9882
X5.3189Y-1.9055
X5.5984Y-1.7638
X5.607Y-2.937
X5.6991Y-2.8521
X5.7402Y-2.9094
X5.7992Y-2.0906
X6.0079Y-3.8386
X6.0827Y-1.7795
X6.0945Y-3.9961
X6.2756Y-2.2835
X6.2835Y-2.5079
X6.3189Y-2.0433
X6.7421Y-2.9528
X6.9094Y-2.9528
X6.9843Y-3.8386
X7.0408Y-2.5029
X7.0748Y-4.0039
X7.1811Y-3.2283
X7.2236Y-2.8661
X7.2843Y-2.6684
X7.2874Y-2.7559
X7.307Y-2.5904
X7.3189Y-3.252
X7.3268Y-1.9724
X7.3307Y-3.1575
X7.3583Y-2.9685
X7.3825Y-2.6057
X7.3858Y-3.3858
X7.3937Y-2.1545
X7.437Y-2.4449
X7.4764Y-2.4449
X7.4843Y-3.1457
X7.5354Y-2.4449
X7.5492Y-2.8607
X7.5591Y-2.7323
X7.5591Y-2.7953
X7.5591Y-3.063
X7.5591Y-2.6593
X7.5709Y-3.1496
X7.5906Y-2.4449
X7.5945Y-2.126
X7.6083Y-3.2579
X7.6083Y-3.2972
X7.6181Y-3.1004
X7.6299Y-2.7323
X7.6299Y-2.7953
X7.687Y-2.7461
X7.6969Y-1.9803
X7.7402Y-3.2323
X7.7402Y-3.3661
X7.748Y-2.4213
X7.7638Y-3.0472
X7.7795Y-3.1969
X7.8445Y-3.1004
X7.8583Y-2.0039
X7.9764Y-2.185
X8.0079Y-3.8307
X8.0669Y-3.1929
X8.0906Y-4.0039
X8.1693Y-2.9528
X8.2776Y-2.9528
X8.3957Y-2.9756
X8.4843Y-2.8839
X8.5591Y-2.752
X8.7165Y-2.68
X8.752Y-2.9213
X8.9803Y-2.8898
X9.0079Y-3.8268
X9.0906Y-3.9921
X10.0039Y-3.8346
X10.0945Y-3.9961
X10.1575Y-2.0678
X10.1872Y-2.4476
T3
X5.7165Y-2.6654
X5.878Y-2.6654
X7.7638Y-2.1969
X7.7795Y-1.8858
X7.783Y-1.791
X8.163Y-2.412
X8.986Y-2.211
X8.987Y-2.473
T5
X5.1346Y-4.3209
X5.5346Y-4.3209
X6.0925Y-4.311
X6.4925Y-4.311
X7.0571Y-4.311
X7.4571Y-4.311
X8.0512Y-4.311
X8.4512Y-4.311
X9.065Y-4.3209
X9.465Y-4.3209
X10.0591Y-4.3209
X10.4591Y-4.3209
T6
X4.8998Y-3.9293
X4.9139Y-3.8136
X4.9412Y-4.0384
X4.9801Y-3.7176
X5.0285Y-4.1157
X5.0834Y-3.6634
X5.1417Y-4.1436
X5.2Y-3.6634
X5.2549Y-4.1157
X5.3033Y-3.7176
X5.3422Y-4.0384
X5.3695Y-3.8136
X5.3836Y-3.9293
X5.8197Y-3.9293
X5.8338Y-3.8136
X5.8611Y-4.0384
X5.9Y-3.7176
X5.9484Y-4.1157
X6.0033Y-3.6634
X6.0616Y-4.1436
X6.1199Y-3.6634
X6.1748Y-4.1157
X6.2232Y-3.7176
X6.2621Y-4.0384
X6.2894Y-3.8136
X6.3035Y-3.9293
X6.7962Y-3.93
X6.8103Y-3.8143
X6.8376Y-4.0391
X6.8765Y-3.7183
X6.9249Y-4.1164
X6.9798Y-3.6641
X7.0381Y-4.1443
X7.0964Y-3.6641
X7.1513Y-4.1164
X7.1997Y-3.7183
X7.2386Y-4.0391
X7.2659Y-3.8143
X7.28Y-3.93
X7.8162Y-3.9307
X7.8303Y-3.815
X7.8576Y-4.0398
X7.8965Y-3.719
X7.9449Y-4.1171
X7.9998Y-3.6648
X8.0581Y-4.145
X8.1164Y-3.6648
X8.1713Y-4.1171
X8.2197Y-3.719
X8.2586Y-4.0398
X8.2859Y-3.815
X8.3Y-3.9307
X8.8203Y-3.9315
X8.8344Y-3.8158
X8.8617Y-4.0406
X8.9006Y-3.7198
X8.949Y-4.1179
X9.0039Y-3.6656
X9.0622Y-4.1458
X9.1205Y-3.6656
X9.1754Y-4.1179
X9.2238Y-3.7198
X9.2627Y-4.0406
X9.29Y-3.8158
X9.3041Y-3.9315
X9.8164Y-3.9322
X9.8305Y-3.8165
X9.8578Y-4.0413
X9.8967Y-3.7205
X9.9451Y-4.1186
X10.0Y-3.6663
X10.0583Y-4.1465
X10.1166Y-3.6663
X10.1715Y-4.1186
X10.2199Y-3.7205
X10.2588Y-4.0413
X10.2861Y-3.8165
X10.3002Y-3.9322
T7
X8.2165Y-1.7874
X8.3937Y-1.7874
X8.573Y-1.7878
X8.7502Y-1.7878
X8.9213Y-1.7874
X9.0984Y-1.7874
T8
X5.3321Y-1.748
X5.4321Y-1.748
T9
X8.1671Y-1.8854
X8.4431Y-1.8854
X8.5236Y-1.8858
X8.7996Y-1.8858
X8.8719Y-1.8854
X9.1478Y-1.8854
T4
G00X7.3669Y-1.766
M15
G01X7.3669Y-1.7345
M16
G05
G00X7.3669Y-1.9365
M15
G01X7.3669Y-1.8931
M16
G05
G00X7.7071Y-1.766
M15
G01X7.7071Y-1.7345
M16
G05
G00X7.7071Y-1.9365
M15
G01X7.7071Y-1.8931
M16
G05
M30
